<?xml version="1.0" encoding="utf-8" ?><svg xmlns="http://www.w3.org/2000/svg" xmlns:xlink="http://www.w3.org/1999/xlink" width="422" height="415" viewBox="0 0 422 415"><path fill="#EF4266" transform="scale(2.55875 2.55875)" d="M61.356 0L65.2019 0C65.8235 0.559126 66.6521 1.11695 67.1403 1.79388C67.7445 2.63159 67.9492 3.75073 67.909 4.76575C67.8004 7.51153 67.336 10.3495 67.016 13.0822C66.2037 20.018 65.1799 26.9322 64.3238 33.8629C61.9998 54.0343 59.39 74.1718 56.4954 94.2693C56.2224 96.1002 55.9286 97.9727 54.3107 99.1274C53.4208 99.7624 52.2779 100.064 51.1955 99.8475C50.1849 99.6457 49.4564 99.1555 48.8952 98.3017C48.1421 97.1558 47.7834 95.7265 47.5292 94.3953C46.7133 90.1212 46.3457 85.7316 45.6757 81.4291C44.3965 73.2154 35.2015 17.4242 35.8934 14.175C37.0411 8.78493 49.186 4.33469 53.803 2.76322C56.1381 1.96842 59.2275 1.38829 61.2995 0.0374923L61.356 0Z"/><path fill="#FEB839" transform="scale(2.55875 2.55875)" d="M72.8425 162C71.6285 161.354 70.2125 161.198 68.9853 160.488C67.7436 159.771 66.8535 158.831 66.4902 157.395C66.091 155.818 66.357 154.011 66.5348 152.412C67.951 139.668 70.2327 126.924 72.0635 114.224L76.4419 84.3329C77.2322 78.8925 77.8645 73.4084 78.8023 67.9925C79.009 66.7991 79.1834 65.2036 79.8363 64.1765C80.3283 63.4024 81.3243 62.8143 82.2061 62.6188C82.8235 62.482 83.4225 62.5311 83.9602 62.8843C84.7532 63.4051 85.1707 64.3737 85.4398 65.2511C86.5063 68.7279 86.746 72.715 87.2769 76.3125L90.7944 100.516C91.3222 104.298 91.5104 108.362 92.3681 112.065C92.7267 116.318 93.5123 120.529 94.1651 124.744L97.1499 144.29C97.7296 148.173 98.8299 152.856 98.5722 156.755C98.508 157.726 97.9743 158.638 97.3538 159.372C95.6862 161.345 93.358 161.174 91.1919 162L89.4413 162L72.8425 162Z"/><path fill="#C08A28" transform="scale(2.55875 2.55875)" d="M92.3681 112.065C92.7267 116.318 93.5123 120.529 94.1651 124.744L97.1499 144.29C97.7296 148.173 98.8299 152.856 98.5722 156.755C98.508 157.726 97.9743 158.638 97.3538 159.372C95.6862 161.345 93.358 161.174 91.1919 162L89.4413 162C89.9327 156.889 90.7811 151.836 91.1173 146.696C91.6042 139.25 91.4195 131.726 91.4282 124.266C91.4317 121.217 90.7993 114.44 92.3681 112.065Z"/><path fill="#7FC55D" transform="scale(2.55875 2.55875)" d="M99.5818 0L102.981 0C104.713 0.969538 107.385 1.44866 109.291 2.07929C114.505 3.80378 123.955 7.24189 127.617 11.4456C129.037 13.0748 129.013 15.0598 128.874 17.1278C128.611 21.032 127.805 25.0147 127.228 28.8871L123.687 52.3314L119.244 81.1605C118.473 86.1868 118.017 91.4487 116.865 96.3939C116.648 97.323 116.258 98.2434 115.51 98.8679C114.675 99.565 113.482 99.8782 112.409 99.776C111.474 99.687 110.318 99.3379 109.733 98.5631C108.928 97.4969 108.697 95.5327 108.481 94.2233C107.359 87.4163 106.669 80.4623 105.789 73.614L100.974 36.5037L98.884 20.2741C98.2889 15.9202 96.5585 7.18497 97.1516 3.14963C97.3667 1.68621 98.4732 0.819412 99.5818 0Z"/><path fill="#4068D3" transform="scale(2.55875 2.55875)" d="M130.421 137.993C132.124 130.542 133.307 122.847 134.76 115.333L144.121 66.7493C144.907 62.6445 147.472 46.6914 148.839 43.9449C149.395 42.8272 150.259 41.7917 151.492 41.4112C152.56 41.0815 153.826 41.2808 154.799 41.819C158.716 43.9856 162.331 57.5831 163.207 61.8414C163.899 65.2067 164.091 68.726 165 72.0354L165 88.1108C164.334 90.0187 164.232 92.2819 163.89 94.2901C163.329 97.7376 162.53 101.142 161.5 104.48C157.824 116.048 146.488 136.673 135.472 142.37C134.478 142.249 133.506 141.957 132.538 141.706C131.406 140.54 130.915 139.528 130.421 137.993Z"/><defs><linearGradient id="gradient_0" gradientUnits="userSpaceOnUse" x1="36.605064" y1="92.68531" x2="-1.0882475" y2="90.144531"><stop offset="0" stop-color="#3457AF"/><stop offset="1" stop-color="#466FE2"/></linearGradient></defs><path fill="url(#gradient_0)" transform="scale(2.55875 2.55875)" d="M0 72.3319L0.0307988 72.2532C0.902299 69.9664 0.856775 66.9261 1.30853 64.4804C2.19621 59.6747 5.84867 43.8694 10.5096 41.7959C11.4908 41.358 12.6078 41.3373 13.6046 41.7384C14.5745 42.1226 15.6817 42.9776 16.0772 43.9558C17.489 47.4478 17.8835 51.9521 18.5764 55.6776L22.4137 75.9313L30.6676 118.665C31.7463 124.309 33.1676 130.029 34.0213 135.699C34.206 136.926 34.3388 138.483 33.8153 139.648C33.3926 140.588 32.3994 141.415 31.4415 141.761C30.3236 142.166 29.1782 141.962 28.1415 141.443C25.9883 140.366 24.0766 138.118 22.4425 136.386C13.9645 127.509 7.6075 116.826 3.84866 105.141C2.89071 102.277 2.12207 99.3541 1.54771 96.3899C1.05272 93.7144 1.05405 90.0933 0 87.6512L0 72.3319Z"/></svg>